<svg width="265" height="35" viewBox="0 0 265 35" fill="none" xmlns="http://www.w3.org/2000/svg">
<g clip-path="url(#clip0_4002_152)">
<path d="M17.7262 7.45454V30H12.9595V7.45454H17.7262ZM40.5056 7.45454V30H36.3884L26.5798 15.81H26.4147V30H21.648V7.45454H25.8312L35.5628 21.6335H35.7609V7.45454H40.5056ZM56.6744 13.9386C56.5863 13.0505 56.2083 12.3607 55.5405 11.869C54.8726 11.3772 53.9663 11.1314 52.8214 11.1314C52.0434 11.1314 51.3866 11.2415 50.8509 11.4616C50.3151 11.6745 49.9041 11.9717 49.6179 12.3533C49.339 12.735 49.1996 13.168 49.1996 13.6523C49.1849 14.056 49.2693 14.4083 49.4528 14.7092C49.6436 15.0101 49.9041 15.2706 50.2344 15.4908C50.5646 15.7036 50.9463 15.8907 51.3793 16.0522C51.8123 16.2063 52.2746 16.3384 52.7663 16.4485L54.7919 16.9329C55.7753 17.1531 56.678 17.4466 57.5 17.8136C58.322 18.1805 59.0339 18.6319 59.6357 19.1676C60.2375 19.7034 60.7035 20.3345 61.0337 21.0611C61.3713 21.7876 61.5438 22.6206 61.5511 23.56C61.5438 24.9397 61.1915 26.136 60.4943 27.1488C59.8045 28.1542 58.8063 28.9358 57.5 29.4936C56.201 30.044 54.6341 30.3192 52.7994 30.3192C50.9793 30.3192 49.3941 30.0404 48.0437 29.4826C46.7006 28.9248 45.6512 28.0992 44.8952 27.0057C44.1467 25.9048 43.754 24.5434 43.7173 22.9215H48.3299C48.3813 23.6774 48.5978 24.3086 48.9794 24.815C49.3684 25.314 49.8858 25.692 50.5316 25.9489C51.1848 26.1984 51.9223 26.3232 52.7443 26.3232C53.5516 26.3232 54.2525 26.2057 54.8469 25.9709C55.4487 25.736 55.9148 25.4094 56.245 24.9911C56.5753 24.5728 56.7404 24.0921 56.7404 23.549C56.7404 23.0426 56.59 22.617 56.2891 22.272C55.9955 21.9271 55.5625 21.6335 54.9901 21.3913C54.425 21.1491 53.7314 20.929 52.9094 20.7308L50.4545 20.1143C48.5537 19.652 47.0529 18.9291 45.9521 17.9457C44.8512 16.9622 44.3045 15.6375 44.3118 13.9716C44.3045 12.6065 44.6677 11.4139 45.4016 10.3938C46.1429 9.3737 47.1593 8.57741 48.451 8.00497C49.7427 7.43253 51.2105 7.14631 52.8544 7.14631C54.5277 7.14631 55.9882 7.43253 57.2358 8.00497C58.4908 8.57741 59.4669 9.3737 60.1641 10.3938C60.8613 11.4139 61.2209 12.5955 61.2429 13.9386H56.6744ZM69.5241 7.45454V30H64.7574V7.45454H69.5241ZM88.3954 14.7422C88.2413 14.2064 88.0248 13.7331 87.7459 13.3221C87.467 12.9038 87.1258 12.5515 86.7221 12.2653C86.3258 11.9717 85.8708 11.7479 85.3571 11.5938C84.8507 11.4396 84.2892 11.3626 83.6728 11.3626C82.5205 11.3626 81.5078 11.6488 80.6344 12.2212C79.7684 12.7937 79.0932 13.6267 78.6088 14.7202C78.1245 15.8063 77.8823 17.1347 77.8823 18.7053C77.8823 20.2758 78.1208 21.6115 78.5978 22.7124C79.0749 23.8132 79.7501 24.6535 80.6234 25.2333C81.4967 25.8058 82.5279 26.092 83.7168 26.092C84.7956 26.092 85.7167 25.9012 86.4799 25.5195C87.2505 25.1306 87.8377 24.5838 88.2413 23.8793C88.6523 23.1747 88.8578 22.3417 88.8578 21.3803L89.8265 21.5234H84.014V17.9347H93.4483V20.7749C93.4483 22.7564 93.03 24.459 92.1934 25.8828C91.3567 27.2992 90.2045 28.3928 88.7367 29.1634C87.2689 29.9266 85.5882 30.3082 83.6948 30.3082C81.5811 30.3082 79.7244 29.8422 78.1245 28.9102C76.5246 27.9708 75.2769 26.6387 74.3816 24.9141C73.4935 23.1821 73.0495 21.1271 73.0495 18.7493C73.0495 16.9219 73.3137 15.2926 73.8422 13.8615C74.3779 12.4231 75.1265 11.2048 76.0879 10.2067C77.0493 9.20857 78.1685 8.44898 79.4455 7.92791C80.7225 7.40684 82.1059 7.14631 83.5957 7.14631C84.8727 7.14631 86.0616 7.33345 87.1625 7.70774C88.2633 8.07469 89.2394 8.59576 90.0907 9.27095C90.9494 9.94614 91.6503 10.7498 92.1934 11.6818C92.7364 12.6065 93.0851 13.6267 93.2392 14.7422H88.3954ZM97.0289 30V7.45454H101.796V16.7567H111.472V7.45454H116.228V30H111.472V20.6868H101.796V30H97.0289ZM119.299 11.3846V7.45454H137.815V11.3846H130.913V30H126.201V11.3846H119.299ZM156.241 30.3082C154.597 30.3082 153.133 30.0257 151.849 29.4606C150.572 28.8881 149.562 28.1029 148.821 27.1048C148.087 26.0993 147.709 24.9397 147.687 23.6261H152.487C152.516 24.1765 152.696 24.6609 153.026 25.0792C153.364 25.4902 153.812 25.8094 154.369 26.0369C154.927 26.2644 155.555 26.3782 156.252 26.3782C156.979 26.3782 157.621 26.2498 158.178 25.9929C158.736 25.736 159.173 25.3801 159.488 24.9251C159.804 24.4701 159.962 23.9453 159.962 23.3509C159.962 22.7491 159.793 22.217 159.455 21.7546C159.125 21.2849 158.648 20.918 158.024 20.6538C157.408 20.3896 156.674 20.2575 155.823 20.2575H153.72V16.7567H155.823C156.542 16.7567 157.177 16.632 157.727 16.3825C158.285 16.1329 158.718 15.788 159.026 15.3477C159.334 14.9 159.488 14.3789 159.488 13.7844C159.488 13.2193 159.353 12.724 159.081 12.2983C158.817 11.8653 158.443 11.5277 157.958 11.2855C157.481 11.0433 156.923 10.9222 156.285 10.9222C155.639 10.9222 155.048 11.0397 154.513 11.2745C153.977 11.502 153.548 11.8286 153.225 12.2543C152.902 12.6799 152.729 13.179 152.707 13.7514H148.139C148.161 12.4524 148.531 11.3075 149.251 10.3168C149.97 9.32599 150.939 8.55173 152.157 7.99396C153.382 7.42886 154.766 7.14631 156.307 7.14631C157.863 7.14631 159.224 7.42886 160.391 7.99396C161.558 8.55907 162.464 9.32232 163.11 10.2837C163.763 11.2378 164.086 12.3093 164.079 13.4982C164.086 14.7605 163.694 15.8137 162.901 16.6577C162.116 17.5017 161.092 18.0374 159.83 18.2649V18.4411C161.488 18.6539 162.751 19.23 163.617 20.1694C164.49 21.1014 164.923 22.2683 164.916 23.6701C164.923 24.9544 164.552 26.0956 163.804 27.0938C163.063 28.0919 162.039 28.8771 160.732 29.4496C159.426 30.022 157.929 30.3082 156.241 30.3082ZM176.995 30.3082C175.835 30.3009 174.716 30.1064 173.637 29.7248C172.566 29.3432 171.604 28.723 170.753 27.8643C169.902 27.0057 169.226 25.8681 168.727 24.4517C168.236 23.0353 167.99 21.2959 167.99 19.2337C167.997 17.3402 168.214 15.6486 168.639 14.1587C169.072 12.6616 169.689 11.3919 170.489 10.3498C171.296 9.30765 172.261 8.51503 173.384 7.97194C174.507 7.42152 175.765 7.14631 177.16 7.14631C178.664 7.14631 179.993 7.43987 181.145 8.02699C182.297 8.60677 183.222 9.39571 183.919 10.3938C184.624 11.3919 185.049 12.5111 185.196 13.7514H180.495C180.312 12.9661 179.927 12.3497 179.34 11.902C178.752 11.4543 178.026 11.2305 177.16 11.2305C175.692 11.2305 174.577 11.869 173.813 13.146C173.057 14.4229 172.672 16.1586 172.657 18.353H172.812C173.149 17.6851 173.604 17.1164 174.177 16.6467C174.756 16.1696 175.413 15.8063 176.147 15.5568C176.888 15.3 177.67 15.1715 178.492 15.1715C179.828 15.1715 181.017 15.4871 182.059 16.1183C183.101 16.7421 183.923 17.6007 184.525 18.6942C185.126 19.7878 185.427 21.0391 185.427 22.4482C185.427 23.9747 185.071 25.3324 184.359 26.5213C183.655 27.7102 182.668 28.6423 181.398 29.3175C180.136 29.9853 178.668 30.3156 176.995 30.3082ZM176.973 26.5653C177.707 26.5653 178.363 26.3892 178.943 26.0369C179.523 25.6847 179.978 25.2076 180.308 24.6058C180.639 24.004 180.804 23.3288 180.804 22.5803C180.804 21.8317 180.639 21.1602 180.308 20.5657C179.985 19.9712 179.538 19.4979 178.965 19.1456C178.393 18.7933 177.74 18.6172 177.006 18.6172C176.455 18.6172 175.945 18.7199 175.476 18.9254C175.013 19.1309 174.606 19.4171 174.254 19.7841C173.909 20.151 173.637 20.5767 173.439 21.0611C173.241 21.5381 173.142 22.0482 173.142 22.5913C173.142 23.3178 173.307 23.982 173.637 24.5838C173.975 25.1856 174.43 25.6663 175.002 26.0259C175.582 26.3855 176.239 26.5653 176.973 26.5653ZM197.647 30.4954C195.753 30.488 194.124 30.022 192.759 29.0973C191.401 28.1726 190.355 26.8332 189.622 25.0792C188.895 23.3252 188.535 21.2152 188.543 18.7493C188.543 16.2907 188.906 14.1954 189.633 12.4634C190.366 10.7314 191.412 9.41406 192.77 8.51136C194.135 7.60133 195.761 7.14631 197.647 7.14631C199.533 7.14631 201.155 7.60133 202.513 8.51136C203.878 9.4214 204.927 10.7424 205.661 12.4744C206.395 14.1991 206.758 16.2907 206.751 18.7493C206.751 21.2225 206.384 23.3362 205.65 25.0902C204.923 26.8442 203.881 28.1836 202.524 29.1083C201.166 30.033 199.54 30.4954 197.647 30.4954ZM197.647 26.5433C198.938 26.5433 199.97 25.8938 200.74 24.5948C201.511 23.2958 201.892 21.3473 201.885 18.7493C201.885 17.0393 201.709 15.6155 201.357 14.478C201.012 13.3404 200.52 12.4854 199.881 11.913C199.25 11.3406 198.505 11.0543 197.647 11.0543C196.362 11.0543 195.335 11.6965 194.564 12.9808C193.794 14.2652 193.405 16.188 193.397 18.7493C193.397 20.4813 193.57 21.9271 193.915 23.0866C194.267 24.2389 194.763 25.1049 195.401 25.6847C196.04 26.2571 196.788 26.5433 197.647 26.5433Z" fill="url(#paint0_linear_4002_152)"/>
<circle cx="207.5" cy="3.5" r="3" stroke="url(#paint1_linear_4002_152)"/>
</g>
<defs>
<linearGradient id="paint0_linear_4002_152" x1="11" y1="19" x2="218" y2="19" gradientUnits="userSpaceOnUse">
<stop stop-color="#FFA500"/>
<stop offset="1" stop-color="white"/>
</linearGradient>
<linearGradient id="paint1_linear_4002_152" x1="207.5" y1="0" x2="207.5" y2="7" gradientUnits="userSpaceOnUse">
<stop stop-color="#FFA500"/>
<stop offset="1" stop-color="white"/>
</linearGradient>
<clipPath id="clip0_4002_152">
<rect width="265" height="35" fill="white"/>
</clipPath>
</defs>
</svg>
